<?xml version="1.0" standalone="no"?>
<!DOCTYPE svg PUBLIC "-//W3C//DTD SVG 20010904//EN"
 "http://www.w3.org/TR/2001/REC-SVG-20010904/DTD/svg10.dtd">
<svg version="1.0" xmlns="http://www.w3.org/2000/svg"
 width="240.000000pt" height="144.000000pt" viewBox="0 0 240.000000 144.000000"
 preserveAspectRatio="xMidYMid meet">
<metadata>
Created by potrace 1.16, written by Peter Selinger 2001-2019
</metadata>
<g transform="translate(0.000000,144.000000) scale(0.100000,-0.100000)"
fill="#000000" stroke="none">
<path d="M720 1280 c-75 -40 -146 -141 -182 -260 -9 -30 -24 -78 -32 -107 -9
-28 -16 -67 -16 -85 l0 -33 -26 43 c-14 23 -29 42 -35 42 -17 0 -9 -30 23 -81
26 -44 34 -71 49 -179 27 -195 74 -313 156 -392 97 -94 208 -88 300 16 55 63
92 144 129 282 2 8 34 11 106 8 l103 -4 11 -47 c36 -149 103 -264 183 -315 56
-35 138 -39 187 -9 112 68 179 202 210 419 14 99 22 126 51 175 45 74 40 113
-5 43 l-32 -50 0 55 c0 30 -5 60 -10 65 -6 6 -17 37 -25 70 -41 156 -128 277
-225 309 -47 16 -53 15 -102 -1 -86 -28 -165 -127 -207 -256 l-13 -38 -81 0
c-45 0 -98 -3 -117 -6 l-35 -6 -18 64 c-39 134 -110 239 -188 278 -48 25 -113
25 -159 0z m155 -33 c72 -41 154 -179 170 -284 6 -37 5 -39 -44 -65 -101 -55
-137 -148 -88 -231 23 -39 92 -97 116 -97 62 0 -15 -227 -109 -321 -82 -82
-161 -80 -245 6 -83 85 -145 263 -145 416 0 52 6 73 35 126 19 35 35 68 35 73
0 22 -20 7 -45 -32 l-27 -43 7 60 c8 84 32 170 65 240 73 152 175 209 275 152z
m778 -41 c97 -42 184 -210 202 -393 l7 -68 -33 50 c-48 73 -51 32 -3 -46 l37
-61 -6 -87 c-18 -244 -134 -431 -268 -431 -94 0 -178 90 -231 248 -33 97 -35
121 -10 128 51 15 127 62 156 96 60 70 54 148 -17 217 -23 23 -64 49 -90 59
-45 16 -48 19 -43 46 17 83 113 223 169 246 33 13 94 12 130 -4z m-360 -292
c12 -4 12 -16 0 -87 -7 -45 -12 -122 -11 -172 l3 -90 -88 1 c-48 0 -92 5 -96
10 -5 5 -5 38 1 73 6 39 7 95 2 140 -13 111 -12 114 16 122 31 9 153 11 173 3z
m115 -33 c45 -23 87 -66 101 -103 16 -43 2 -88 -43 -132 -39 -38 -127 -82
-140 -69 -8 8 -7 204 0 271 8 60 20 65 82 33z m-344 -13 c10 -39 7 -266 -4
-273 -13 -8 -66 25 -103 63 -59 62 -41 151 42 203 54 35 57 35 65 7z"/>
</g>
</svg>
